<svg version="1.1" xmlns="http://www.w3.org/2000/svg">
    <symbol id="spotify" viewBox="0 0 168 168">
        <path d="M83.743,0c-46.249,0 -83.743,37.493 -83.743,83.742c0,46.251 37.494,83.741 83.743,83.741c46.254,0 83.744,-37.49 83.744,-83.741c0,-46.246 -37.49,-83.738 -83.745,-83.738l0.001,-0.004Zm38.404,120.78c-1.5,2.46 -4.72,3.24 -7.18,1.73c-19.662,-12.01 -44.414,-14.73 -73.564,-8.07c-2.809,0.64 -5.609,-1.12 -6.249,-3.93c-0.643,-2.81 1.11,-5.61 3.926,-6.25c31.9,-7.288 59.263,-4.15 81.337,9.34c2.434,1.494 3.223,4.652 1.73,7.18Zm10.25,-22.802c-1.89,3.072 -5.91,4.042 -8.98,2.152c-22.51,-13.836 -56.823,-17.843 -83.448,-9.761c-3.453,1.043 -7.1,-0.903 -8.148,-4.35c-1.04,-3.453 0.907,-7.093 4.354,-8.143c30.413,-9.228 68.222,-4.758 94.072,11.127c3.07,1.89 4.04,5.91 2.15,8.976l0,-0.001Zm0.88,-23.744c-26.99,-16.031 -71.52,-17.505 -97.289,-9.684c-4.138,1.255 -8.514,-1.081 -9.768,-5.219c-1.254,-4.14 1.08,-8.513 5.221,-9.771c29.581,-8.98 78.756,-7.245 109.83,11.202c3.73,2.209 4.95,7.016 2.74,10.733c-2.2,3.722 -7.02,4.949 -10.73,2.739l-0.004,0Z" />
    </symbol>
    <symbol id="bandcamp" viewBox="0 0 275 162">
        <path d="M186.782,161.01l-186.782,0l87.224,-161.01l186.783,0l-87.225,161.01Z" />
    </symbol>
    <symbol id="apple-music" viewBox="0 0 170 170">
        <path d="m150.37 130.25c-2.45 5.66-5.35 10.87-8.71 15.66-4.58 6.53-8.33 11.05-11.22 13.56-4.48 4.12-9.28 6.23-14.42 6.35-3.69 0-8.14-1.05-13.32-3.18-5.197-2.12-9.973-3.17-14.34-3.17-4.58 0-9.492 1.05-14.746 3.17-5.262 2.13-9.501 3.24-12.742 3.35-4.929 0.21-9.842-1.96-14.746-6.52-3.13-2.73-7.045-7.41-11.735-14.04-5.032-7.08-9.169-15.29-12.41-24.65-3.471-10.11-5.211-19.9-5.211-29.378 0-10.857 2.346-20.221 7.045-28.068 3.693-6.303 8.606-11.275 14.755-14.925s12.793-5.51 19.948-5.629c3.915 0 9.049 1.211 15.429 3.591 6.362 2.388 10.447 3.599 12.238 3.599 1.339 0 5.877-1.416 13.57-4.239 7.275-2.618 13.415-3.702 18.445-3.275 13.63 1.1 23.87 6.473 30.68 16.153-12.19 7.386-18.22 17.731-18.1 31.002 0.11 10.337 3.86 18.939 11.23 25.769 3.34 3.17 7.07 5.62 11.22 7.36-0.9 2.61-1.85 5.11-2.86 7.51zm-31.26-123.01c0 8.1021-2.96 15.667-8.86 22.669-7.12 8.324-15.732 13.134-25.071 12.375-0.119-0.972-0.188-1.995-0.188-3.07 0-7.778 3.386-16.102 9.399-22.908 3.002-3.446 6.82-6.3113 11.45-8.597 4.62-2.2516 8.99-3.4968 13.1-3.71 0.12 1.0831 0.17 2.1663 0.17 3.2409z"/>
    </symbol>
    <symbol id="google-play-music" viewBox="0 0 462 510">
        <path d="M184.982,435.78c-38.538,21.936 -77.041,43.936 -115.485,66.038c-16.986,9.615 -39.106,11.893 -54.258,-1.646c-10.395,-9.288 -14.91,-24.221 -15.009,-38.527c-0.318,-137.83 -0.294,-275.66 0,-413.489c0.106,-16.559 6.024,-34.083 20.914,-42.826c6.159,-3.616 13.329,-5.344 20.495,-5.33c9.831,0.069 19.497,3.324 28.145,8.144l108.283,61.527c15.548,-4.326 31.663,-6.686 47.919,-6.815c0.611,-0.003 1.223,-0.004 1.835,-0.003c51.504,0.246 102.491,22.412 137.769,60.077c20.571,21.962 35.435,49.094 43.658,78.099l24.594,13.975c13.413,7.732 25.118,19.934 26.953,35.763c1.224,10.558 -2.56,21.423 -9.388,29.724c-4.761,5.789 -10.809,10.428 -17.287,14.141c-9.442,5.343 -18.885,10.685 -28.327,16.026c-0.881,0.865 -1.65,1.295 -3.114,2.324l-213.353,121.144c-1.953,0.87 -2.673,1.333 -4.344,1.654Zm210.291,-135.842c4.372,-15.004 6.556,-31.105 6.556,-47.47c0,-96.313 -78.312,-174.616 -174.62,-174.616c-96.311,0 -174.615,78.303 -174.615,174.616c0,80.758 54.842,148.693 129.326,168.614l213.353,-121.144Zm-55.504,-44.901c0,60.271 -48.856,109.134 -109.134,109.134c-60.276,0 -109.135,-48.863 -109.135,-109.134c0,-60.276 48.859,-109.135 109.135,-109.135c60.277,-0.001 109.134,48.858 109.134,109.135Zm-70.939,-30.013l0,-27.283l-38.196,0l0,67.109c-3.821,-2.174 -8.185,-3.542 -12.824,-3.542c-14.185,0 -25.373,11.466 -25.373,25.371c0,14.195 11.457,25.379 25.373,25.379c14.192,0 26.467,-11.465 26.467,-25.379l0,-61.655l24.553,0Z" />
    </symbol>
    <symbol id="deezer" viewBox="0 0 148 83">
        <path d="M26.828,73.98l0,8.131l-26.828,0l0,-8.131l26.828,0Zm60.159,0l0,8.131l-26.828,0l0,-8.131l26.828,0Zm-30.08,0l0,8.131l-26.828,0l0,-8.131l26.828,0Zm60.16,0l0,8.131l-26.829,0l0,-8.131l26.829,0Zm30.081,0l0,8.131l-26.83,0l0,-8.131l26.83,0Zm-120.32,-10.567l0,8.131l-26.828,0l0,-8.131l26.828,0Zm60.159,0l0,8.131l-26.828,0l0,-8.131l26.828,0Zm-30.08,0l0,8.131l-26.828,0l0,-8.131l26.828,0Zm60.16,0l0,8.131l-26.829,0l0,-8.131l26.829,0Zm30.081,0l0,8.131l-26.83,0l0,-8.131l26.83,0Zm-60.161,-10.567l0,8.131l-26.828,0l0,-8.131l26.828,0Zm-60.159,0l0,8.131l-26.828,0l0,-8.131l26.828,0Zm30.079,0l0,8.131l-26.828,0l0,-8.131l26.828,0Zm60.16,0l0,8.131l-26.829,0l0,-8.131l26.829,0Zm30.081,-0.002l0,8.13l-26.83,0l0,-8.13l26.83,0Zm-60.161,-10.565l0,8.128l-26.828,0l0,-8.128l26.828,0Zm-60.159,0l0,8.128l-26.828,0l0,-8.128l26.828,0Zm90.239,0l0,8.128l-26.829,0l0,-8.128l26.829,0Zm30.081,-0.003l0,8.131l-26.83,0l0,-8.131l26.83,0Zm-60.161,-10.566l0,8.127l-26.828,0l0,-8.127l26.828,0Zm-60.159,0l0,8.127l-26.828,0l0,-8.127l26.828,0Zm90.239,0l0,8.127l-26.829,0l0,-8.127l26.829,0Zm30.081,-0.003l0,8.13l-26.83,0l0,-8.13l26.83,0Zm-60.161,-10.567l0,8.13l-26.828,0l0,-8.13l26.828,0Zm60.161,0l0,8.127l-26.83,0l0,-8.127l26.83,0Zm-60.161,-10.568l0,8.131l-26.828,0l0,-8.131l26.828,0Zm60.161,-0.002l0,8.127l-26.83,0l0,-8.127l26.83,0Zm0,-10.57l0,8.13l-26.83,0l0,-8.13l26.83,0Z" />
    </symbol>
    <symbol id="tidal" viewBox="0 0 38 26">
        <path id="path121" d="M25.224,6.305l6.306,-6.305l6.305,6.305l-6.305,6.307l-6.307,-6.307l-6.304,6.306l6.305,6.306l-6.305,6.307l-6.307,-6.307l6.306,-6.306l-6.306,-6.306l6.307,-6.304l6.305,6.304Zm-12.612,0l-6.307,6.307l-6.305,-6.307l6.305,-6.305l6.307,6.305Z" />
    </symbol>
    <symbol id="soundcloud" viewBox="0 0 24 24">
        <path d="M7 17.94H6V9.87c.3-.23.64-.43 1-.56v8.63zm3 0h1V8.7c-.23.27-.44.55-.62.86L10 9.4v8.55zm-2 0h1V9.09c-.5-.08-.62-.05-1 0v8.85zm-4 0h1v-7.02a4.7 4.7 0 0 0-.7 1.53l-.3-.18v5.67zm-3-5.25c-.6.55-1 1.35-1 2.27 0 .91.4 1.72 1 2.26V12.7zm18.88-.67c-.2-2.84-2.4-5.08-5.12-5.08-1.02 0-1.96.33-2.76.88v10.12h9.09c1.6 0 2.91-1.4 2.91-3.1 0-2.24-2.17-3.78-4.12-2.82zM3 11.99c-.3-.02-.53-.03-1 .12v5.7c.45.14.64.13 1 .13v-5.95z" />
    </symbol>
    <symbol id="itunes" viewBox="0 0 438 440">
        <path d="M219.6 0c76.5.3 151.2 43.4 189.6 111.2a223.3 223.3 0 0 1 5 207.7 221.4 221.4 0 0 1-112 104.2 221 221 0 0 1-171.5-2.1C76.4 397 33 350 13 294a223.1 223.1 0 0 1 10.3-172.7A221.3 221.3 0 0 1 134.4 17c26.4-11 55-16.9 83.8-17h1.4zm-1.3 15c-51.5.3-103 20.8-140.3 56.7a207.4 207.4 0 0 0-63 147.4c-.1 64.4 31.3 128 84.3 166.5A205.8 205.8 0 0 0 257.2 421a206.8 206.8 0 0 0 154.3-134A208.6 208.6 0 0 0 381 95.6 207 207 0 0 0 218.3 15zm75.9 306a38 38 0 0 0 26.7-27l1.1-3.9.1-106c.2-79.4 0-106.5-.4-108a9.8 9.8 0 0 0-2.2-4 9.5 9.5 0 0 0-5-1.2c-1.3 0-6 .6-10.3 1.4-19 3.5-131.4 25.8-133.4 26.5-3 1.1-5.9 3.8-7.3 6.5l-1.1 2.4s-.6 166.1-1.5 168a12.8 12.8 0 0 1-6.9 6.4c-1.2.4-6.2 1.5-11.1 2.5-22.6 4.5-31 7.7-38 14.7-4 4-7 9.3-8.3 15a38.3 38.3 0 0 0 1 18.4c1.7 5.2 4.7 9.6 8.6 13 3.5 2.7 7.7 4.7 12.3 6a65.5 65.5 0 0 0 39.5-6c4.2-2.5 9.5-7.5 12.3-11.6a45 45 0 0 0 3.6-7.3c3.2-8.4 3.3-157.2 3.8-159.1a8 8 0 0 1 5.8-6.3c2.7-.7 111-22.1 114-22.5 2.7-.4 5.2.5 6.6 2.2.8.4 1.5 1 2 1.7.9 1.3 1 4 1 51 .2 54.3.3 53-2.7 56.4-2.1 2.5-4.8 3.5-15.8 5.7-16.7 3.5-22.5 5-28.9 8.2-8 4-12.4 8.2-15.9 15.3-2.4 5-3.3 8.8-3.3 13.8 0 9 3.1 16 10 22.8l2 1.8c3.5 2.7 7 4.4 11.6 5.4 6.8 1.6 20.6.5 30-2.2z" />
    </symbol>
    <symbol id="amazon-music" viewBox="0 0 180 106">
        <path d="M159.7 78.3c-22 9.3-46.1 14-68 14-32.3 0-63.7-9-89-23.8-.3-.2-.7-.4-1.2-.4-1.4 0-2.2 1.7-.8 3 23.5 21.3 54.6 34 89 34 24.7 0 53.2-7.6 72.8-22.2 3.4-2.4.6-6-2.8-4.6zm8.5 19c10.5-9 13.3-27.3 11-30.2-1-1.2-5.8-2.4-11.8-2.4a36 36 0 0 0-20 5.5c-1.9 1.2-1.5 2.8.3 2.6 6.3-.8 20.5-2.4 23.1.8 2.4 3.2-2.8 16.6-5.3 22.4-.6 1.9.8 2.5 2.7 1.3zm-48.6-51.8c-1.2.8-3 1.4-5.2 1.4-3.5 0-6.7-.4-10-1.4l-1.7-.4c-.7 0-.9.4-.9 1.2v2c0 .6.2 1 .4 1.4l1.3.9a27 27 0 0 0 10.9 2c4.2 0 7.5-1 10-3 2.7-2 4-4.7 4-8.1 0-2.5-.7-4.3-1.9-6a14.3 14.3 0 0 0-6-3.8l-5.7-2.2c-2.2-.8-3.9-1.6-4.5-2.4a3.8 3.8 0 0 1-1.2-3c0-3 2.2-4.7 6.9-4.7 2.6 0 5.3.4 7.7 1.2l1.6.4c.6 0 1-.4 1-1.2v-2c0-.6-.2-1-.4-1.4-.2-.4-.6-.6-1.2-.8-3-1-6-1.6-9.1-1.6-3.8 0-7 1-9.5 2.8a9 9 0 0 0-3.6 7.5c0 4.6 2.6 8 7.8 10l6.1 2.3c2 .8 3.2 1.4 4 2.2.9.8 1 1.6 1 2.9 0 1.6-.5 3-1.8 3.8zM70 15c1 0 1.4.4 1.4 1.4v22.8c0 2.7.4 4.5 1.4 5.7 1 1.2 2.7 1.8 4.9 1.8a19 19 0 0 0 10.3-3.4v-27c0-.7.4-1.3 1.6-1.3h4.3c1 0 1.4.4 1.4 1.4v33.3c0 1-.4 1.5-1.4 1.5h-3c-.7 0-1 0-1.3-.2-.4-.2-.6-.4-.6-1l-.4-2.5a23.3 23.3 0 0 1-13.8 4.9c-3.4 0-6-1-7.8-2.9-1.9-1.8-2.7-4.6-2.7-8V16.4c0-1 .4-1.4 1.4-1.4H70zm89.2 8c1.8-2 4.6-3 8.7-3 2 0 4 .2 5.8.8l1.2.2c.6 0 1-.4 1-1.4v-2c0-.6-.1-1.2-.4-1.4l-1-.8c-2.6-.6-5.2-1.2-7.6-1.2a17 17 0 0 0-13.2 5c-3 3.2-4.6 8.1-4.6 14.2 0 6 1.4 10.7 4.4 14 3 3.2 7.3 4.8 13 4.8 3 0 5.8-.4 8-1.4.6-.2 1-.5 1.3-.9.2-.2.2-.8.2-1.4v-2c0-1-.5-1.4-1-1.4-.3 0-.7 0-1 .2-2.3.6-4.5 1-6.5 1-3.9 0-6.7-1-8.5-3-1.9-2-2.7-5.3-2.7-9.5v-1c.2-4.5 1-7.7 2.9-9.7zM45 14c3.3 0 5.7 1 7.5 2.8 1.8 1.8 2.6 4.4 2.6 7.9v25.2c0 1-.4 1.5-1.4 1.5h-4.2c-1 0-1.4-.4-1.4-1.5V26.7a9 9 0 0 0-1.5-5.3c-.8-1.2-2.2-1.8-4.2-1.8-3.4 0-6.9 1-10.5 3.2V50c0 1-.4 1.5-1.4 1.5h-4.3c-1 0-1.4-.4-1.4-1.5V26.7a9 9 0 0 0-1.4-5.3c-.8-1.2-2.2-1.8-4.3-1.8-3.6 0-7 1.2-10.5 3.2v27.3c0 1-.4 1.5-1.4 1.5H3c-1 0-1.5-.4-1.5-1.5V16.6c0-1 .5-1.4 1.5-1.4h3.2c.4 0 .8 0 1 .2.4.2.6.4.6 1l.4 2.2c4.5-3 9-4.6 13.4-4.6s7.4 1.6 9 5c4.7-3.4 9.6-5 14.2-5h.2zm95 1c1 0 1.5.6 1.5 1.4v33.5c0 1-.4 1.5-1.4 1.5h-4.3c-1 0-1.4-.4-1.4-1.5V16.4c0-1 .4-1.4 1.4-1.4h4.3zm1.3-13.8c-.8-.8-2-1.2-3.5-1.2a4.1 4.1 0 0 0-4.4 4.2c0 1.3.4 2.5 1.2 3 .8.9 1.8 1.3 3.2 1.3 1.5 0 2.5-.4 3.3-1.2.8-.8 1.2-1.8 1.2-3 0-1.3-.2-2.5-1-3z" />
    </symbol>
</svg>